<svg width="550" height="117" viewBox="0 0 550 117" fill="none" xmlns="http://www.w3.org/2000/svg">
<g clip-path="url(#clip0_17_2)">
<path d="M51.6068 116.839L51.9547 116.966L52.3027 116.839C99.7491 99.4902 103.757 69.9486 103.912 68.5798V12.2989L95.3933 8.24107L94.9173 8.55124C91.4892 10.7912 87.4139 11.9253 82.8058 11.9253C68.1847 11.9253 52.714 0.56235 52.5589 0.447723L51.9561 0L51.3533 0.447723C51.1995 0.56235 35.741 11.924 21.105 11.9253H21.1023C16.4956 11.9253 12.4203 10.7899 8.99223 8.55124L8.51619 8.24107L1.52588e-05 12.2989L0.00675694 68.6985C0.152402 69.9473 4.16168 99.4889 51.6068 116.839ZM64.3656 41.7839L63.6508 41.0691L64.3656 40.3544L65.0803 39.6397L84.0168 58.5748L65.0803 77.5113L64.3656 76.7966L63.6508 76.0819L64.3656 75.3671L81.1565 58.5748L64.3656 41.7839ZM56.6113 40.0577L58.5452 40.6538L47.2955 77.0919L45.3616 76.4959L56.6113 40.0577ZM38.8292 39.6383L39.5439 40.353L40.2587 41.0678L39.5439 41.7825L22.7503 58.5748L39.5439 75.3658L40.2587 76.0805L39.5439 76.7953L38.8292 77.51L19.89 58.5748L38.8292 39.6383Z" fill="#007BFF"/>
<path d="M164.395 28.057L193.267 90.018H186.665L176.93 69.5865H150.189L140.537 90.018H133.601L162.891 28.057H164.395ZM163.643 41.1791L152.947 63.6578H174.172L163.643 41.1791ZM198.197 43.9344H231.831L205.843 85.0481H230.996V90.2708H195.732L221.637 49.1157H198.197V43.9344ZM237.765 43.3526H243.698V64.745C243.698 69.9817 243.976 73.5749 244.533 75.5247C245.369 78.3381 246.971 80.5595 249.338 82.189C251.706 83.8185 254.547 84.6332 257.862 84.6332C261.149 84.6332 263.934 83.8394 266.218 82.2517C268.502 80.6639 270.076 78.5749 270.94 75.9845C271.552 74.2297 271.859 70.4832 271.859 64.7452V43.3528H277.876V65.8734C277.876 72.1964 277.13 76.9526 275.64 80.142C274.15 83.3313 271.929 85.8243 268.976 87.6207C266.024 89.4172 262.319 90.3156 257.862 90.3157C253.377 90.3157 249.645 89.4174 246.664 87.6207C243.684 85.8241 241.455 83.3032 239.979 80.0581C238.503 76.813 237.765 71.9314 237.765 65.4133V43.3526ZM288.655 69.2973V63.7819C289.101 61.0243 289.742 58.782 290.577 57.055C292.527 52.264 295.145 48.7543 298.432 46.5259C301.719 44.2975 304.449 43.1833 306.622 43.1833C308.237 43.1833 309.964 43.7126 311.803 44.7711L308.753 49.7012C306.162 48.7541 303.592 49.5201 301.044 51.9992C298.495 54.4782 296.733 57.1801 295.758 60.1047C295.034 62.6952 294.672 67.5559 294.672 74.6867V90.1876H288.655L288.655 69.2973ZM353.836 73.9771L358.766 76.6093C357.178 79.8126 355.312 82.3892 353.167 84.339C351.022 86.2888 348.613 87.772 345.938 88.7886C343.264 89.8052 340.242 90.3136 336.872 90.3137C329.407 90.3137 323.571 87.8694 319.365 82.9809C315.159 78.0924 313.056 72.5702 313.056 66.4142C313.056 60.5926 314.839 55.4116 318.404 50.8713C322.917 45.0775 328.975 42.1807 336.579 42.1807C344.351 42.1807 350.576 45.1472 355.256 51.0802C358.571 55.2584 360.242 60.4673 360.27 66.7067H319.115C319.226 72.0548 320.925 76.435 324.212 79.8472C327.499 83.2594 331.552 84.9655 336.371 84.9655C338.71 84.9655 340.981 84.5547 343.181 83.7329C345.382 82.9112 347.255 81.8319 348.801 80.4948C350.347 79.1578 352.025 76.9853 353.836 73.9771ZM353.836 61.6512C353.056 58.5036 351.914 55.9897 350.409 54.1095C348.905 52.2294 346.914 50.7112 344.434 49.5551C341.955 48.399 339.351 47.821 336.621 47.8212C332.137 47.8212 328.279 49.2696 325.048 52.1665C322.708 54.2835 320.939 57.445 319.741 61.651L353.836 61.6512ZM387.511 34.2437V28.2269H421.522V34.2437H407.65V90.1891H401.341V34.2437H387.511ZM443.207 42.1803C450.254 42.1803 456.103 44.729 460.755 49.8264C465.045 54.4781 467.19 60.0073 467.19 66.4138C467.245 82.2353 467.245 90.2714 467.19 90.5221H460.964V80.1185C457.705 86.1909 451.786 89.5891 443.207 90.3133C436.187 90.3133 430.456 87.9248 426.013 83.1477C421.571 78.3706 419.349 72.7928 419.349 66.4142C419.349 60.0633 421.452 54.5481 425.658 49.8685C430.31 44.7432 436.16 42.1803 443.207 42.1803ZM443.207 47.9477C438.332 47.9477 434.14 49.7582 430.63 53.3793C427.121 57.0004 425.366 61.3736 425.366 66.4989C425.366 69.8136 426.264 73.0029 428.061 76.0669C429.857 79.131 432.9 81.7214 437.19 83.8384C447.942 86.2339 455.588 81.3454 460.128 69.1729C460.379 65.2732 459.961 61.5407 458.875 57.9753C458.095 56.3597 457.023 54.8277 455.658 53.3793C452.232 49.7582 448.081 47.9477 443.207 47.9477ZM501.66 48.3627L497.9 52.2902C494.724 49.2262 491.646 47.6942 488.666 47.6942C486.744 47.6942 485.1 48.3209 483.735 49.5744C482.371 50.8278 481.688 52.318 481.688 54.0449C481.688 55.4934 482.259 56.8861 483.401 58.2231C484.515 59.6437 486.869 61.2732 490.462 63.1116C494.863 65.3679 497.844 67.5545 499.404 69.6714C500.936 71.8162 501.702 74.2257 501.702 76.8997C501.702 80.6322 500.386 83.8007 497.753 86.4051C495.121 89.0095 491.827 90.3118 487.872 90.3118C485.226 90.3118 482.698 89.7477 480.288 88.6196C477.879 87.4915 475.894 85.9107 474.334 83.8773L478.053 79.6573C481.061 83.0556 484.251 84.7547 487.621 84.7547C489.961 84.7547 491.959 83.9957 493.617 82.4776C495.274 80.9595 496.103 79.1838 496.103 77.1505C496.103 75.4513 495.56 73.9472 494.473 72.638C493.387 71.3288 490.922 69.6855 487.078 67.7079C482.928 65.6188 480.114 63.5158 478.638 61.3988C477.134 59.3376 476.382 56.9699 476.382 54.2959C476.382 50.8141 477.573 47.9241 479.954 45.6261C482.336 43.3281 485.323 42.1791 488.916 42.1791C493.122 42.1791 497.37 44.2402 501.66 48.3627ZM511.98 26.7221H517.913V62.9052L539.097 44.4376H547.788L528.61 61.8608L549.25 90.2725H540.894L522.844 65.6212L517.913 69.6741V90.2728H511.981L511.98 26.7221Z" fill="#007BFF"/>
</g>
<defs>
<clipPath id="clip0_17_2">
<rect width="549.25" height="116.966" fill="white"/>
</clipPath>
</defs>
</svg>
